<svg width="28" height="28" viewBox="0 0 28 28" fill="none" xmlns="http://www.w3.org/2000/svg">
<path d="M22.1666 8.16659H18.6666V6.99992C18.6666 5.76224 18.175 4.57526 17.2998 3.70009C16.4246 2.82492 15.2376 2.33325 14 2.33325C12.7623 2.33325 11.5753 2.82492 10.7001 3.70009C9.82495 4.57526 9.33329 5.76224 9.33329 6.99992V8.16659H5.83329C5.52387 8.16659 5.22713 8.2895 5.00833 8.50829C4.78954 8.72709 4.66663 9.02383 4.66663 9.33325V22.1666C4.66663 23.0948 5.03537 23.9851 5.69175 24.6415C6.34813 25.2978 7.23837 25.6666 8.16662 25.6666H19.8333C20.7615 25.6666 21.6518 25.2978 22.3082 24.6415C22.9645 23.9851 23.3333 23.0948 23.3333 22.1666V9.33325C23.3333 9.02383 23.2104 8.72709 22.9916 8.50829C22.7728 8.2895 22.476 8.16659 22.1666 8.16659ZM11.6666 6.99992C11.6666 6.38108 11.9125 5.78759 12.35 5.35C12.7876 4.91242 13.3811 4.66659 14 4.66659C14.6188 4.66659 15.2123 4.91242 15.6499 5.35C16.0875 5.78759 16.3333 6.38108 16.3333 6.99992V8.16659H11.6666V6.99992ZM21 22.1666C21 22.476 20.877 22.7728 20.6582 22.9915C20.4395 23.2103 20.1427 23.3333 19.8333 23.3333H8.16662C7.8572 23.3333 7.56046 23.2103 7.34167 22.9915C7.12287 22.7728 6.99996 22.476 6.99996 22.1666V10.4999H9.33329V11.6666C9.33329 11.976 9.45621 12.2728 9.675 12.4915C9.89379 12.7103 10.1905 12.8333 10.5 12.8333C10.8094 12.8333 11.1061 12.7103 11.3249 12.4915C11.5437 12.2728 11.6666 11.976 11.6666 11.6666V10.4999H16.3333V11.6666C16.3333 11.976 16.4562 12.2728 16.675 12.4915C16.8938 12.7103 17.1905 12.8333 17.5 12.8333C17.8094 12.8333 18.1061 12.7103 18.3249 12.4915C18.5437 12.2728 18.6666 11.976 18.6666 11.6666V10.4999H21V22.1666Z" fill="#AE1332"/>
</svg>
